<svg id="Component_1_1" data-name="Component 1 – 1" xmlns="http://www.w3.org/2000/svg" width="1368.365" height="179.389" viewBox="0 0 1368.365 179.389">
  <g id="reliance-industries-ltd">
    <path id="Path_1" data-name="Path 1" d="M173.757,165.791a28.377,28.377,0,0,1-14.918,4.147c-17.525,0-14.366-9.285-57.473-46.006l-.136-.116a36.823,36.823,0,0,0,5.54.418c17.715,0,34.326-11.884,34.326-28.643,0-17.819-16.312-27.575-36.8-27.575-27.627,0-54.368,21.223-54.368,58.578,0,15.931,5.875,38.918,17.091,51.29C26.614,163.029,0,130.687,0,92.271,0,50.42,32.977,17.166,70.471,6.4A116.515,116.515,0,0,1,108.183.5C172.617.5,216.991,44.989,217.2,88.589c1.086,30.759-14.909,59-43.442,77.2Z" transform="translate(0 -0.495)" fill="#d2a046" fill-rule="evenodd"/>
    <path id="Path_2" data-name="Path 2" d="M28.718,79.522c-12.287-6.672-19.9-15.8-21.349-25.6,0-11,15.451-18.385,22.22-40.327,1.81,15.36,21.349,27.662,21.349,41.291C49.7,64.63,42.183,73.729,29.932,80.33l-1.214-.815Z" transform="translate(57.688 99.059)" fill="#d2a046" fill-rule="evenodd"/>
  </g>
  <text id="Workshop_Management" data-name="Workshop Management" transform="translate(233.365 137.445)" fill="#d0a24d" font-size="100" font-family="SegoeUI-Bold, Segoe UI" font-weight="700"><tspan x="0" y="0">Workshop Management</tspan></text>
</svg>
