<svg xmlns="http://www.w3.org/2000/svg" xmlns:xlink="http://www.w3.org/1999/xlink" width="1005.669" height="519.806" viewBox="0 0 1005.669 519.806">
  <defs>
    <clipPath id="clip-path">
      <rect width="293" height="58" fill="none"/>
    </clipPath>
  </defs>
  <g id="Component_5_1" data-name="Component 5 – 1" transform="translate(0.003)">
    <g id="spare-parts-delivery" transform="translate(563.46 -377.653)">
      <path id="Path_7" data-name="Path 7" d="M721.907,364.951H254.826a36.337,36.337,0,0,1-36.275-36.275v-1.4A36.337,36.337,0,0,1,254.826,291H721.907a36.337,36.337,0,0,1,36.275,36.275v1.4A36.337,36.337,0,0,1,721.907,364.951Z" transform="translate(-373.412 96.806)" fill="#ffac17"/>
      <path id="Path_8" data-name="Path 8" d="M639.763,741.393c0-11.292-11.992-27.781-21.685-33.577h93.636V610.583h9.893V328.176H254.926v435.7H596.393a27.2,27.2,0,0,1-9.494-6.3c-4.1-4.1-7.495-8.794-7.495-14.59s1.2-13.191,5.5-18.587c3.7-4.7,10.793-9.593,17.588-9.494,5.8.1,11.992.8,16.589,4.5,5.6,4.4,11.992,11.492,10.493,23.584-.9,6.8-5.3,12.391-9.494,16.589-2.4,2.4-5.3,3.2-8.494,4.3H721.608V743.092H639.664a9.7,9.7,0,0,0,.1-1.7Zm-62.857,0v1.7H544.628V708.915h51.465c-9.394,5.9-19.287,18.987-19.187,32.478ZM542.03,704.818a6.97,6.97,0,0,1-7-5.5H486.868V680.335h48.067v-2.7H509.052v-29.18h25.782v-3.2H493.663V620.975h41.172V590.2a7.042,7.042,0,0,1,7.2-6.9H697.724c3.9-.1,9.094,3,9.194,6.9V694.924c0,3.8-5.2,9.893-9.194,9.893H542.03Z" transform="translate(-409.787 133.581)" fill="#f8c160"/>
      <path id="Path_9" data-name="Path 9" d="M647.358,430.606H473.876c-5.2,0-9.394-7.395-9.394-16.489s4.2-16.489,9.394-16.489H647.357c5.2,0,9.394,7.395,9.394,16.489s-4.2,16.489-9.394,16.489Zm-2,81.944H475.875c-6.3,0-11.392-7.395-11.392-16.489s5.1-16.489,11.392-16.489H645.359c6.3,0,11.392,7.395,11.392,16.489S651.655,512.55,645.359,512.55ZM454.29,628.57H297.2c-5.8,0-10.593-7.395-10.593-16.489s4.7-16.488,10.593-16.488H454.29c5.8,0,10.593,7.395,10.593,16.489s-4.7,16.489-10.593,16.489Zm-37.575,78.946H294.8c-4.5,0-8.194-7.395-8.194-16.489s3.7-16.489,8.194-16.489H416.715c4.5,0,8.194,7.395,8.194,16.489S421.212,707.516,416.715,707.516Zm-53.763-278.11a30.23,30.23,0,1,0,29.979,30.179A30.09,30.09,0,0,0,362.952,429.406Zm0,47.767a17.038,17.038,0,0,1-16.888-17.088c0-9.194,7.795-17.088,16.888-17.088s16.888,7.895,16.888,17.088A17.038,17.038,0,0,1,362.952,477.173Zm74.549-29.48a7.654,7.654,0,0,0-4.3-5.3L421.012,438c-.9-2.2-1.3-3.9-2.6-5.7l5.6-11.392a6.97,6.97,0,0,0-.4-6.6,89.813,89.813,0,0,0-16.489-16.689,5.736,5.736,0,0,0-6.5-.4l-11.292,5.7c-1.7-.9-3.9-1.8-5.6-2.6l-4.3-12.292a6.9,6.9,0,0,0-5.2-4.4,68.262,68.262,0,0,0-22.984,0,7.431,7.431,0,0,0-5.2,4.4l-4.3,12.292c-2.2.9-3.9,1.3-5.6,2.6l-11.292-5.7c-2.2-.9-4.8-.9-6.5.4a84.235,84.235,0,0,0-16.489,16.689,6.074,6.074,0,0,0-.4,6.6l5.6,11.392c-.9,1.7-1.7,3.9-2.6,5.7L292.3,442.4a6.6,6.6,0,0,0-4.3,5.3,54.377,54.377,0,0,0-.9,11.792,106.361,106.361,0,0,0,.9,11.792,7.654,7.654,0,0,0,4.3,5.3l12.192,4.4c.9,2.2,1.3,3.9,2.6,5.7l-5.6,11.392a6.97,6.97,0,0,0,.4,6.6,89.814,89.814,0,0,0,16.489,16.689,5.687,5.687,0,0,0,6.5.4l11.292-5.7c1.7.9,3.9,1.8,5.6,2.6l4.3,12.292a6.9,6.9,0,0,0,5.2,4.4c4.3.4,7.795.9,11.692.9a98.045,98.045,0,0,0,11.692-.9,7.394,7.394,0,0,0,5.2-4.4l4.3-12.292c2.2-.9,3.9-1.3,5.6-2.6l11.292,5.7c2.2.9,4.8.9,6.5-.4a84.234,84.234,0,0,0,16.489-16.689,6.074,6.074,0,0,0,.4-6.6l-5.6-11.392c.9-1.8,1.7-3.9,2.6-5.7l12.192-4.4a6.6,6.6,0,0,0,4.3-5.3,54.377,54.377,0,0,0,.9-11.792c0-3.9-.8-7.395-1.3-11.792ZM425.01,465.282l-11.292,3.9c-2.2.9-3.5,2.2-3.9,4.4a38.652,38.652,0,0,1-3.9,9.593,7.208,7.208,0,0,0,0,6.1l5.2,10.992a71.421,71.421,0,0,1-8.194,8.294l-10.893-5.3a7.2,7.2,0,0,0-6.1,0,32.3,32.3,0,0,1-9.593,3.9c-2.2.4-3.5,2.2-4.3,3.9l-3.9,11.392a53.317,53.317,0,0,1-11.292,0l-3.9-11.392c-.9-2.2-2.2-3.5-4.3-3.9a40.274,40.274,0,0,1-9.593-3.9,7.2,7.2,0,0,0-6.1,0l-10.793,5.3a80.267,80.267,0,0,1-8.194-8.294l5.2-10.992a7.208,7.208,0,0,0,0-6.1,40.273,40.273,0,0,1-3.9-9.593c-.4-2.2-2.2-3.5-3.9-4.4l-11.292-3.9c0-2.2-.4-3.9-.4-5.7a27.332,27.332,0,0,1,.4-5.7l11.292-3.9c2.2-.9,3.5-2.2,3.9-4.4a38.652,38.652,0,0,1,3.9-9.593,7.208,7.208,0,0,0,0-6.1l-5.2-10.992a71.421,71.421,0,0,1,8.194-8.294l10.793,5.3a7.2,7.2,0,0,0,6.1,0,32.82,32.82,0,0,1,9.493-3.9c2.2-.4,3.5-2.2,4.3-3.9l3.9-11.392a53.317,53.317,0,0,1,11.292,0l3.9,11.392c.9,2.2,2.2,3.5,4.3,3.9a40.273,40.273,0,0,1,9.593,3.9,7.2,7.2,0,0,0,6.1,0l10.893-5.3a80.267,80.267,0,0,1,8.194,8.294l-5.2,10.992a7.208,7.208,0,0,0,0,6.1,40.273,40.273,0,0,1,3.9,9.593c.4,2.2,2.2,3.5,3.9,4.4l11.292,3.9c0,2.2.4,3.9.4,5.7a28.66,28.66,0,0,1-.3,5.7ZM437.5,447.694a7.654,7.654,0,0,0-4.3-5.3L421.012,438c-.9-2.2-1.3-3.9-2.6-5.7l5.6-11.392a6.97,6.97,0,0,0-.4-6.6,89.813,89.813,0,0,0-16.489-16.689,5.736,5.736,0,0,0-6.5-.4l-11.292,5.7c-1.7-.9-3.9-1.8-5.6-2.6l-4.3-12.292a6.9,6.9,0,0,0-5.2-4.4,68.262,68.262,0,0,0-22.984,0,7.431,7.431,0,0,0-5.2,4.4l-4.3,12.292c-2.2.9-3.9,1.3-5.6,2.6l-11.292-5.7c-2.2-.9-4.8-.9-6.5.4a84.235,84.235,0,0,0-16.489,16.689,6.074,6.074,0,0,0-.4,6.6l5.6,11.392c-.9,1.7-1.7,3.9-2.6,5.7L292.3,442.4a6.6,6.6,0,0,0-4.3,5.3,54.377,54.377,0,0,0-.9,11.792,106.361,106.361,0,0,0,.9,11.792,7.654,7.654,0,0,0,4.3,5.3l12.192,4.4c.9,2.2,1.3,3.9,2.6,5.7l-5.6,11.392a6.97,6.97,0,0,0,.4,6.6,89.814,89.814,0,0,0,16.489,16.689,5.687,5.687,0,0,0,6.5.4l11.292-5.7c1.7.9,3.9,1.8,5.6,2.6l4.3,12.292a6.9,6.9,0,0,0,5.2,4.4c4.3.4,7.795.9,11.692.9a98.045,98.045,0,0,0,11.692-.9,7.394,7.394,0,0,0,5.2-4.4l4.3-12.292c2.2-.9,3.9-1.3,5.6-2.6l11.292,5.7c2.2.9,4.8.9,6.5-.4a84.234,84.234,0,0,0,16.489-16.689,6.074,6.074,0,0,0,.4-6.6l-5.6-11.392c.9-1.8,1.7-3.9,2.6-5.7l12.192-4.4a6.6,6.6,0,0,0,4.3-5.3,54.377,54.377,0,0,0,.9-11.792c0-3.9-.8-7.395-1.3-11.792ZM425.01,465.282l-11.292,3.9c-2.2.9-3.5,2.2-3.9,4.4a38.652,38.652,0,0,1-3.9,9.593,7.208,7.208,0,0,0,0,6.1l5.2,10.992a71.421,71.421,0,0,1-8.194,8.294l-10.893-5.3a7.2,7.2,0,0,0-6.1,0,32.3,32.3,0,0,1-9.593,3.9c-2.2.4-3.5,2.2-4.3,3.9l-3.9,11.392a53.317,53.317,0,0,1-11.292,0l-3.9-11.392c-.9-2.2-2.2-3.5-4.3-3.9a40.274,40.274,0,0,1-9.593-3.9,7.2,7.2,0,0,0-6.1,0l-10.793,5.3a80.267,80.267,0,0,1-8.194-8.294l5.2-10.992a7.208,7.208,0,0,0,0-6.1,40.273,40.273,0,0,1-3.9-9.593c-.4-2.2-2.2-3.5-3.9-4.4l-11.292-3.9c0-2.2-.4-3.9-.4-5.7a27.332,27.332,0,0,1,.4-5.7l11.292-3.9c2.2-.9,3.5-2.2,3.9-4.4a38.652,38.652,0,0,1,3.9-9.593,7.208,7.208,0,0,0,0-6.1l-5.2-10.992a71.421,71.421,0,0,1,8.194-8.294l10.793,5.3a7.2,7.2,0,0,0,6.1,0,32.82,32.82,0,0,1,9.493-3.9c2.2-.4,3.5-2.2,4.3-3.9l3.9-11.392a53.317,53.317,0,0,1,11.292,0l3.9,11.392c.9,2.2,2.2,3.5,4.3,3.9a40.273,40.273,0,0,1,9.593,3.9,7.2,7.2,0,0,0,6.1,0l10.893-5.3a80.267,80.267,0,0,1,8.194,8.294l-5.2,10.992a7.208,7.208,0,0,0,0,6.1,40.273,40.273,0,0,1,3.9,9.593c.4,2.2,2.2,3.5,3.9,4.4l11.292,3.9c0,2.2.4,3.9.4,5.7a28.66,28.66,0,0,1-.3,5.7Z" transform="translate(-214.545 -5.01)" fill="#99bfee"/>
      <path id="Path_10" data-name="Path 10" d="M625.673,739.694A20.775,20.775,0,0,0,590.2,725a20.775,20.775,0,1,0,35.476,14.69Zm144.8,0A20.786,20.786,0,1,0,735,754.384a21.421,21.421,0,0,0,14.69,6.1,20.813,20.813,0,0,0,20.786-20.786Zm-195.467-1.6a30.217,30.217,0,0,1,14.39-25.882H549.325v27.581h25.682v-1.7ZM541.03,684.232H492.863v11.293H541.13a6.733,6.733,0,0,0,6.6,5.2h146.9a6.679,6.679,0,0,0,6.8-6.5V595.394a6.612,6.612,0,0,0-6.8-6.5h-146.9a6.679,6.679,0,0,0-6.8,6.5v30.879H498.259v15.39H541.03v10.593H514.748V674.14H541.03v10.093Z" transform="translate(-414.383 136.979)" fill="#ffac17"/>
      <path id="Path_11" data-name="Path 11" d="M629.37,712.113A30.07,30.07,0,0,1,644.16,738.1v1.5H726.7a30.762,30.762,0,0,1,6.7-20.786,33.029,33.029,0,0,1,7.595-6.8l.6-.4a30.563,30.563,0,0,1,29.18-1.1c.7.4,1.4.7,2.1,1.1l.6.4a30.439,30.439,0,0,1,14.39,27.581h12.791V679.135s.1-4,0-5.4c-.5-4.8-3.3-21.885-13.591-36.575-13.391-19.187-23.384-22.585-23.384-22.585H714.912v97.433c0,.1-85.542.1-85.542.1ZM726,652.953V626.172h31.778l5.5,5.5,5.3,5.3,5.3,5.4,5.4,5.4v21.385H726.1Z" transform="translate(-412.084 134.58)" fill="#ffac17"/>
    </g>
    <g id="Component_4_1" data-name="Component 4 – 1" transform="translate(0 54.116)">
      <g id="Path_13" data-name="Path 13" transform="translate(63 233.289)" fill="#99bfee">
        <path d="M 146.1819000244141 227.900634765625 L 3.999987840652466 227.900634765625 L 3.999987840652466 -4.971348762512207 L 146.1819000244141 -95.43569183349609 L 146.1819000244141 227.900634765625 Z" stroke="none"/>
        <path d="M 142.181884765625 -88.14968872070312 L 8 -2.775405883789062 L 8 223.9006500244141 L 142.181884765625 223.9006500244141 L 142.181884765625 -88.14968872070312 M 150.181884765625 -102.7217559814453 L 150.181884765625 231.9006500244141 L 0 231.9006500244141 L 0 -7.1673583984375 L 150.181884765625 -102.7217559814453 Z" stroke="none" fill="#a0add6"/>
      </g>
      <g id="Path_15" data-name="Path 15" transform="translate(193 233.289)" fill="#99bfee">
        <path d="M 152.1369781494141 227.900634765625 L 3.99998140335083 227.900634765625 L 3.99998140335083 -4.925679206848145 L 152.1369781494141 -95.58415985107422 L 152.1369781494141 227.900634765625 Z" stroke="none"/>
        <path d="M 148.1369781494141 -88.44657897949219 L 7.999984741210938 -2.684036254882812 L 7.999984741210938 223.9006500244141 L 148.1369781494141 223.9006500244141 L 148.1369781494141 -88.44657897949219 M 156.1369781494141 -102.7217559814453 L 156.1369781494141 231.9006500244141 L -1.52587890625e-05 231.9006500244141 L -1.52587890625e-05 -7.1673583984375 L 156.1369781494141 -102.7217559814453 Z" stroke="none" fill="#a0add6"/>
      </g>
      <g id="Path_16" data-name="Path 16" transform="translate(321 233.289)" fill="#99bfee">
        <path d="M 147.5424652099609 227.900634765625 L 4.000012874603271 227.900634765625 L 4.000012874603271 -4.960721969604492 L 147.5424652099609 -95.47076416015625 L 147.5424652099609 227.900634765625 Z" stroke="none"/>
        <path d="M 143.5424957275391 -88.21983337402344 L 7.999984741210938 -2.754165649414062 L 7.999984741210938 223.9006500244141 L 143.5424957275391 223.9006500244141 L 143.5424957275391 -88.21983337402344 M 151.5424957275391 -102.7217559814453 L 151.5424957275391 231.9006500244141 L -1.52587890625e-05 231.9006500244141 L -1.52587890625e-05 -7.1673583984375 L 151.5424957275391 -102.7217559814453 Z" stroke="none" fill="#a0add6"/>
      </g>
      <g id="Path_23" data-name="Path 23" transform="translate(0 100.19)" fill="#99bfee">
        <path d="M 68 360 L 4 360 L 4 4 L 68 4 L 68 360 Z" stroke="none"/>
        <path d="M 8 8 L 8 356 L 64 356 L 64 8 L 8 8 M 0 0 L 72 0 L 72 364 L 0 364 L 0 0 Z" stroke="none" fill="#acacfc"/>
      </g>
      <line id="Line_9" data-name="Line 9" y2="92" transform="translate(36 373.69)" fill="none" stroke="#a0add6" stroke-width="8"/>
      <g id="Ellipse_2" data-name="Ellipse 2" transform="translate(32 353.19)" fill="#ffac17" stroke="#a0add6" stroke-width="8">
        <ellipse cx="4" cy="4.5" rx="4" ry="4.5" stroke="none"/>
        <ellipse cx="4" cy="4.5" ry="0.5" fill="none"/>
      </g>
      <g id="Rectangle_12" data-name="Rectangle 12" transform="translate(0 100.19)" fill="#99bfee" stroke="#a0add6" stroke-width="8">
        <rect width="72" height="35" stroke="none"/>
        <rect x="4" y="4" width="64" height="27" fill="none"/>
      </g>
      <path id="Path_17" data-name="Path 17" d="M3284,555.6c-.253-27.034,11.019-51.411,26.5-57.5,17.292-6.8,39.178,7.06,39.178,7.06" transform="matrix(0.891, 0.454, -0.454, 0.891, -2660.891, -1933.042)" fill="none" stroke="#a0add6" stroke-width="8"/>
      <path id="Path_18" data-name="Path 18" d="M3284,549c5.273-44.423,11.937-52.039,11.937-52.039" transform="translate(-3280.031 -448.81)" fill="none" stroke="#a0add6" stroke-width="8"/>
      <path id="Path_19" data-name="Path 19" d="M3365.8,472.355" transform="translate(-3284 -448.81)" fill="none" stroke="#a0add6" stroke-width="8"/>
      <path id="Path_20" data-name="Path 20" d="M3359.942,466.5c68.107-23.435,75.43,13.182,75.43,13.182" transform="translate(-3284 -448.81)" fill="none" stroke="#a0add6" stroke-width="8"/>
      <path id="Path_21" data-name="Path 21" d="M20.706,0H55.215A20.854,20.854,0,0,1,75.921,21,20.854,20.854,0,0,1,55.215,42H20.706" transform="translate(126.079 27.151)" fill="#fff" stroke="#a0add6" stroke-width="8"/>
      <line id="Line_10" data-name="Line 10" x2="57" transform="translate(81.091 69.151)" fill="none" stroke="#a0add6" stroke-width="8" stroke-dasharray="35 10"/>
      <path id="Path_22" data-name="Path 22" d="M3352.394,543.616c.563-33.8,16.337-32.11,16.337-32.11" transform="translate(-3284.62 -442.341)" fill="none" stroke="#a0add6" stroke-width="8"/>
      <g id="Rectangle_13" data-name="Rectangle 13" transform="translate(138 269.19)" fill="#f8c160" stroke="#a0add6" stroke-width="8">
        <rect width="382" height="195" rx="16" stroke="none"/>
        <rect x="4" y="4" width="374" height="187" rx="12" fill="none"/>
      </g>
      <g id="Repeat_Grid_2" data-name="Repeat Grid 2" transform="translate(193 336.19)" clip-path="url(#clip-path)">
        <g transform="translate(-775 -594)">
          <g id="Rectangle_14" data-name="Rectangle 14" transform="translate(775 594)" fill="#f8c160" stroke="#a0add6" stroke-width="8">
            <rect width="56" height="58" rx="13" stroke="none"/>
            <rect x="4" y="4" width="48" height="50" rx="9" fill="none"/>
          </g>
        </g>
        <g transform="translate(-699 -594)">
          <g id="Rectangle_14-2" data-name="Rectangle 14" transform="translate(775 594)" fill="#f8c160" stroke="#a0add6" stroke-width="8">
            <rect width="56" height="58" rx="13" stroke="none"/>
            <rect x="4" y="4" width="48" height="50" rx="9" fill="none"/>
          </g>
        </g>
        <g transform="translate(-623 -594)">
          <g id="Rectangle_14-3" data-name="Rectangle 14" transform="translate(775 594)" fill="#f8c160" stroke="#a0add6" stroke-width="8">
            <rect width="56" height="58" rx="13" stroke="none"/>
            <rect x="4" y="4" width="48" height="50" rx="9" fill="none"/>
          </g>
        </g>
        <g transform="translate(-547 -594)">
          <g id="Rectangle_14-4" data-name="Rectangle 14" transform="translate(775 594)" fill="#f8c160" stroke="#a0add6" stroke-width="8">
            <rect width="56" height="58" rx="13" stroke="none"/>
            <rect x="4" y="4" width="48" height="50" rx="9" fill="none"/>
          </g>
        </g>
      </g>
    </g>
  </g>
</svg>
